<?xml version="1.0" encoding="UTF-8"?><svg id="Layer_2" xmlns="http://www.w3.org/2000/svg" viewBox="0 0 6.72 6.72"><defs><style>.cls-1{fill:#fff;stroke-width:0px;}</style></defs><g id="Object"><path class="cls-1" d="M3.36,1.83s-.09-.04-.09-.09V.12s.04-.09.09-.09.09.04.09.09v1.61s-.04.09-.09.09Z"/><path class="cls-1" d="M3.36,1.86c-.07,0-.12-.06-.12-.12V.12c0-.07.06-.12.12-.12s.12.06.12.12v1.61c0,.07-.06.12-.12.12ZM3.36.07s-.06.03-.06.06v1.61s.03.06.06.06.06-.03.06-.06V.12s-.03-.06-.06-.06Z"/><path class="cls-1" d="M3.36,6.69s-.09-.04-.09-.09v-1.61s.04-.09.09-.09.09.04.09.09v1.61s-.04.09-.09.09Z"/><path class="cls-1" d="M3.36,6.72c-.07,0-.12-.06-.12-.12v-1.61c0-.07.06-.12.12-.12s.12.06.12.12v1.61c0,.07-.06.12-.12.12ZM3.36,4.93s-.06.03-.06.06v1.61s.03.06.06.06.06-.03.06-.06v-1.61s-.03-.06-.06-.06Z"/><path class="cls-1" d="M6.6,3.45h-1.61s-.09-.04-.09-.09.04-.09.09-.09h1.61s.09.04.09.09-.04.09-.09.09Z"/><path class="cls-1" d="M6.6,3.49h-1.61c-.07,0-.12-.06-.12-.12s.06-.12.12-.12h1.61c.07,0,.12.06.12.12s-.06.12-.12.12ZM4.99,3.31s-.06.03-.06.06.03.06.06.06h1.61s.06-.03.06-.06-.03-.06-.06-.06h-1.61Z"/><path class="cls-1" d="M1.74,3.45H.12s-.09-.04-.09-.09.04-.09.09-.09h1.61s.09.04.09.09-.04.09-.09.09Z"/><path class="cls-1" d="M1.74,3.49H.12c-.07,0-.12-.06-.12-.12s.06-.12.12-.12h1.61c.07,0,.12.06.12.12s-.06.12-.12.12ZM.12,3.31s-.06.03-.06.06.03.06.06.06h1.61s.06-.03.06-.06-.03-.06-.06-.06H.12Z"/><path class="cls-1" d="M4.51,2.3s-.05,0-.06-.03c-.04-.04-.04-.09,0-.13l1.14-1.14s.09-.04.13,0,.04.09,0,.13l-1.14,1.14s-.04.03-.06.03Z"/><path class="cls-1" d="M4.51,2.34s-.06-.01-.09-.04c-.05-.05-.05-.13,0-.17l1.14-1.14s.13-.05.17,0c.05.05.05.13,0,.17l-1.14,1.14s-.05.04-.09.04ZM5.65,1.02s-.03,0-.04.02l-1.14,1.14s-.02.06,0,.08c.02.02.06.02.08,0l1.14-1.14s.02-.06,0-.08c-.01-.01-.03-.02-.04-.02Z"/><path class="cls-1" d="M1.07,5.74s-.05,0-.06-.03c-.04-.04-.04-.09,0-.13l1.14-1.14s.09-.04.13,0c.04.04.04.09,0,.13l-1.14,1.14s-.04.03-.06.03Z"/><path class="cls-1" d="M1.07,5.77s-.06-.01-.09-.04c-.05-.05-.05-.13,0-.17l1.14-1.14s.13-.05.17,0c.05.05.05.13,0,.17l-1.14,1.14s-.05.04-.09.04ZM2.21,4.46s-.03,0-.04.02l-1.14,1.14s-.02.06,0,.08c.02.02.06.02.08,0l1.14-1.14s.02-.06,0-.08c-.01-.01-.03-.02-.04-.02Z"/><path class="cls-1" d="M5.65,5.74s-.05,0-.06-.03l-1.14-1.14s-.04-.09,0-.13c.04-.04.09-.04.13,0l1.14,1.14s.04.09,0,.13c-.02.02-.04.03-.06.03Z"/><path class="cls-1" d="M5.65,5.77s-.06-.01-.09-.04l-1.14-1.14s-.05-.13,0-.17c.05-.05.13-.05.17,0l1.14,1.14s.05.13,0,.17c-.02.02-.05.04-.09.04ZM4.51,4.46s-.03,0-.04.02c-.02.02-.02.06,0,.08l1.14,1.14s.06.02.08,0c.02-.02.02-.06,0-.08l-1.14-1.14s-.03-.02-.04-.02Z"/><path class="cls-1" d="M2.21,2.3s-.05,0-.06-.03l-1.14-1.14s-.04-.09,0-.13c.04-.04.09-.04.13,0l1.14,1.14s.04.09,0,.13c-.02.02-.04.03-.06.03Z"/><path class="cls-1" d="M2.21,2.34s-.06-.01-.09-.04L.98,1.16s-.05-.13,0-.17c.05-.05.13-.05.17,0l1.14,1.14s.05.13,0,.17c-.02.02-.05.04-.09.04ZM1.07,1.02s-.03,0-.04.02c-.02.02-.02.06,0,.08l1.14,1.14s.06.02.08,0c.02-.02.02-.06,0-.08l-1.14-1.14s-.03-.02-.04-.02Z"/></g></svg>