<?xml version="1.0" encoding="UTF-8"?><svg id="Layer_2" xmlns="http://www.w3.org/2000/svg" viewBox="0 0 5.16 6.67"><defs><style>.cls-1{fill:#fff;stroke-width:0px;}</style></defs><g id="Object"><path class="cls-1" d="M2.52,3.91l.06.05.06-.05c.05-.04,1.34-1.09,1.34-1.94,0-.47-.28-.7-.54-.75-.32-.07-.65.07-.85.36-.21-.29-.54-.44-.86-.37-.26.06-.53.29-.53.76,0,.86,1.28,1.9,1.34,1.94ZM1.76,1.38s.08-.01.12-.01c.21,0,.47.12.62.42l.08.16.08-.17c.17-.35.5-.45.73-.4.25.06.4.27.4.58,0,.68-.97,1.55-1.21,1.76-.25-.21-1.21-1.08-1.21-1.76,0-.31.15-.53.39-.58Z"/><path class="cls-1" d="M2.58,3.99s-.02,0-.02,0l-.06-.05c-.05-.04-1.35-1.1-1.35-1.97,0-.49.29-.73.56-.79.31-.07.65.06.87.34.21-.28.55-.41.86-.34.27.06.57.3.57.79,0,.87-1.29,1.93-1.35,1.97l-.06.05s-.01,0-.02,0ZM1.88,1.22c-.05,0-.11,0-.16.02-.24.06-.51.28-.51.73,0,.84,1.27,1.87,1.32,1.92h0l.04.03.04-.03c.05-.04,1.32-1.08,1.32-1.92,0-.45-.26-.67-.51-.72-.3-.07-.62.07-.82.35,0,0-.02.01-.03.01h0s-.02,0-.03-.01c-.17-.24-.42-.37-.67-.37ZM2.58,3.76s-.02,0-.02,0c-.29-.25-1.22-1.1-1.22-1.78,0-.32.16-.56.42-.62h0s.08-.01.13-.01c.21,0,.49.12.65.44l.05.1.05-.1c.18-.37.52-.48.77-.42.27.06.43.29.43.61,0,.68-.94,1.54-1.22,1.78,0,0-.01,0-.02,0ZM1.77,1.42c-.23.05-.37.26-.37.55,0,.65.94,1.5,1.18,1.71.24-.21,1.18-1.06,1.18-1.71,0-.29-.14-.49-.37-.55-.22-.05-.53.05-.69.38l-.08.17s-.02.02-.03.02c-.01,0-.02,0-.03-.02l-.08-.16c-.15-.3-.4-.4-.59-.4-.04,0-.08,0-.11.01h0Z"/><path class="cls-1" d="M5.03,6.63s-.04,0-.05-.02l-2.4-1.63L.17,6.62s-.06.02-.09,0c-.03-.02-.05-.05-.05-.08V.12S.07.03.12.03h4.91s.09.04.09.09v6.42s-.02.06-.05.08c-.01,0-.03.01-.04.01ZM2.58,4.79s.04,0,.05.02l2.31,1.57V.21H.21v6.16l2.31-1.57s.03-.02.05-.02Z"/><path class="cls-1" d="M.12,6.67s-.04,0-.06-.01c-.04-.02-.07-.06-.07-.11V.12c0-.07.06-.12.12-.12h4.91c.07,0,.12.06.12.12v6.42s-.03.09-.07.11c-.04.02-.09.02-.13,0l-2.38-1.62L.19,6.65s-.05.02-.07.02ZM.12.07s-.06.03-.06.06v6.42s.01.04.03.05c.02,0,.04,0,.06,0l2.4-1.63s.03,0,.04,0l2.4,1.63s.04.01.06,0c.02,0,.03-.03.03-.05V.12s-.03-.06-.06-.06H.12ZM4.94,6.41s-.01,0-.02,0l-2.31-1.57s-.04-.01-.06,0L.23,6.4s-.02,0-.03,0c-.01,0-.02-.02-.02-.03V.21s.02-.03.03-.03h4.73s.03.02.03.03v6.16s0,.02-.02.03c0,0-.01,0-.02,0ZM2.58,4.75s.05,0,.07.02l2.26,1.54V.25H.25v6.06l2.26-1.54s.04-.02.07-.02Z"/></g></svg>