<?xml version="1.0" encoding="UTF-8"?><svg id="Layer_2" xmlns="http://www.w3.org/2000/svg" viewBox="0 0 6.87 6.64"><defs><style>.cls-1{fill:#fff;stroke-width:0px;}</style></defs><g id="Object"><path class="cls-1" d="M6.75,3.52s-.05,0-.06-.03L3.44.25.19,3.5s-.09.04-.13,0c-.04-.04-.04-.09,0-.13L3.37.06s.09-.03.13,0l3.31,3.31s.04.09,0,.13c-.02.02-.04.03-.06.03Z"/><path class="cls-1" d="M6.75,3.56s-.06-.01-.09-.04L3.44.3.21,3.52s-.13.05-.17,0c-.05-.05-.05-.13,0-.17L3.35.03s.13-.04.17,0l3.31,3.31s.04.05.04.09-.01.06-.04.09c-.02.02-.05.04-.09.04ZM3.44.21s.02,0,.02,0l3.25,3.25s.06.02.08,0c.01-.01.02-.02.02-.04s0-.03-.02-.04L3.48.08s-.06-.02-.08,0L.08,3.39s-.02.02-.02.04,0,.03.02.04c.02.02.06.02.08,0L3.41.22s.01,0,.02,0Z"/><path class="cls-1" d="M5.86,6.61h-1.6s-.09-.04-.09-.09v-2.29h-1.47v2.29s-.04.09-.09.09h-1.6s-.09-.04-.09-.09v-3.89s.04-.09.09-.09.09.04.09.09v3.8h1.42v-2.29s.04-.09.09-.09h1.65s.09.04.09.09v2.29h1.42v-3.8s.04-.09.09-.09.09.04.09.09v3.89s-.04.09-.09.09Z"/><path class="cls-1" d="M5.86,6.64h-1.6c-.07,0-.12-.06-.12-.12v-2.26h-1.4v2.26c0,.07-.06.12-.12.12h-1.6c-.07,0-.12-.06-.12-.12v-3.89c0-.07.06-.12.12-.12s.12.06.12.12v3.77h1.35v-2.26c0-.07.06-.12.12-.12h1.65c.07,0,.12.06.12.12v2.26h1.35v-3.77c0-.07.06-.12.12-.12s.12.06.12.12v3.89c0,.07-.06.12-.12.12ZM2.7,4.19h1.47s.03.02.03.03v2.29s.03.06.06.06h1.6s.06-.03.06-.06v-3.89s-.03-.06-.06-.06-.06.03-.06.06v3.8s-.02.03-.03.03h-1.42s-.03-.02-.03-.03v-2.29s-.03-.06-.06-.06h-1.65s-.06.03-.06.06v2.29s-.02.03-.03.03h-1.42s-.03-.02-.03-.03v-3.8s-.03-.06-.06-.06-.06.03-.06.06v3.89s.03.06.06.06h1.6s.06-.03.06-.06v-2.29s.02-.03.03-.03Z"/></g></svg>