<?xml version="1.0" encoding="UTF-8"?><svg id="Layer_2" xmlns="http://www.w3.org/2000/svg" viewBox="0 0 6.53 5.75"><defs><style>.cls-1{fill:#fff;stroke-width:0px;}</style></defs><g id="Object"><path class="cls-1" d="M6.13,3.84h-.97s-.09-.04-.09-.09.04-.09.09-.09h.92c.14-.25.24-.76.24-1.09,0-.84-.66-1.52-1.48-1.52-.12,0-.24.02-.36.05-.04.01-.08,0-.1-.05-.26-.51-.77-.83-1.33-.83-.72,0-1.33.53-1.47,1.25,0,.05-.06.08-.1.07-.06-.01-.12-.02-.18-.02C.7,1.52.21,2.02.21,2.64c0,.33.12.82.29,1.02h1.17s.09.04.09.09-.04.09-.09.09H.46s-.05-.01-.07-.03c-.24-.25-.36-.84-.36-1.18C.03,1.92.6,1.34,1.3,1.34c.04,0,.08,0,.12,0C1.6.58,2.27.03,3.05.03c.61,0,1.16.33,1.45.87.11-.02.22-.04.33-.04.92,0,1.66.76,1.66,1.7,0,.33-.1.95-.29,1.23-.02.02-.04.04-.07.04Z"/><path class="cls-1" d="M6.13,3.88h-.97c-.07,0-.12-.06-.12-.12s.06-.12.12-.12h.9c.13-.25.22-.75.22-1.06,0-.82-.65-1.49-1.45-1.49-.11,0-.23.02-.35.05-.06.01-.11-.01-.14-.06-.25-.5-.75-.81-1.3-.81-.7,0-1.3.51-1.43,1.22-.01.07-.08.11-.14.1-.06-.01-.12-.02-.17-.02C.72,1.55.25,2.04.25,2.64c0,.3.11.78.27.99h1.15c.07,0,.12.06.12.12s-.06.12-.12.12H.46s-.07-.01-.09-.04c-.24-.25-.37-.86-.37-1.2,0-.73.58-1.33,1.3-1.33.03,0,.06,0,.09,0,.19-.77.87-1.31,1.65-1.31.6,0,1.17.33,1.47.86.11-.02.21-.03.32-.03.93,0,1.69.78,1.69,1.74,0,.34-.1.96-.3,1.25-.02.03-.06.05-.1.05ZM5.15,3.7s-.06.03-.06.06.03.06.06.06h.97s.04,0,.05-.02c.19-.28.29-.89.29-1.22,0-.92-.73-1.67-1.63-1.67-.11,0-.22.01-.33.04-.02,0-.03,0-.04-.02-.29-.53-.84-.85-1.42-.85C2.29.07,1.63.6,1.45,1.35c0,.02-.02.03-.04.03-.04,0-.08,0-.12,0C.62,1.37.07,1.94.07,2.64c0,.33.12.91.35,1.15.01.01.03.02.04.02h1.21s.06-.03.06-.06-.03-.06-.06-.06H.5s-.02,0-.03-.01c-.18-.22-.29-.72-.29-1.05,0-.64.5-1.15,1.12-1.15.06,0,.11,0,.18.02.03,0,.06-.02.06-.05.14-.74.77-1.28,1.5-1.28.57,0,1.09.33,1.36.85.01.02.04.04.06.03.12-.03.25-.05.37-.05.84,0,1.51.7,1.51,1.56,0,.33-.09.85-.24,1.11,0,.01-.02.02-.03.02h-.92Z"/><path class="cls-1" d="M2.18,5.72c-.25,0-.45-.2-.45-.45s.2-.45.45-.45.45.2.45.45-.2.45-.45.45ZM2.18,5c-.15,0-.27.12-.27.27s.12.27.27.27.27-.12.27-.27-.12-.27-.27-.27Z"/><path class="cls-1" d="M2.18,5.75c-.27,0-.48-.22-.48-.48s.22-.48.48-.48.48.22.48.48-.22.48-.48.48ZM2.18,4.86c-.23,0-.41.19-.41.41s.19.41.41.41.41-.19.41-.41-.19-.41-.41-.41ZM2.18,5.57c-.17,0-.3-.14-.3-.3s.14-.3.3-.3.3.14.3.3-.14.3-.3.3ZM2.18,5.04c-.13,0-.23.11-.23.23s.11.23.23.23.23-.11.23-.23-.11-.23-.23-.23Z"/><path class="cls-1" d="M4.03,5.36c-.25,0-.45-.2-.45-.45s.2-.45.45-.45.45.2.45.45-.2.45-.45.45ZM4.03,4.64c-.15,0-.27.12-.27.27s.12.27.27.27.27-.12.27-.27-.12-.27-.27-.27Z"/><path class="cls-1" d="M4.03,5.39c-.27,0-.48-.22-.48-.48s.22-.48.48-.48.48.22.48.48-.22.48-.48.48ZM4.03,4.5c-.23,0-.41.19-.41.41s.19.41.41.41.41-.19.41-.41-.19-.41-.41-.41ZM4.03,5.21c-.17,0-.3-.14-.3-.3s.14-.3.3-.3.3.14.3.3-.14.3-.3.3ZM4.03,4.68c-.13,0-.23.11-.23.23s.11.23.23.23.23-.11.23-.23-.11-.23-.23-.23Z"/><path class="cls-1" d="M2.54,5.36s-.09-.04-.09-.09v-2.21s.03-.08.07-.09l1.85-.34s.05,0,.07.02c.02.02.03.04.03.07v2.19s-.04.09-.09.09-.09-.04-.09-.09v-2.08l-1.67.31v2.13s-.04.09-.09.09Z"/><path class="cls-1" d="M2.54,5.39c-.07,0-.12-.06-.12-.12v-2.21c0-.06.04-.11.1-.12l1.85-.34s.07,0,.1.03c.03.02.04.06.04.1v2.19c0,.07-.06.12-.12.12s-.12-.06-.12-.12v-2.04l-1.6.3v2.1c0,.07-.06.12-.12.12ZM4.39,2.66s0,0-.01,0l-1.85.34s-.05.03-.05.06v2.21s.03.06.06.06.06-.03.06-.06v-2.13s.01-.03.03-.03l1.67-.31s.02,0,.03,0c0,0,.01.02.01.03v2.08s.03.06.06.06.06-.03.06-.06v-2.19s0-.03-.02-.04c-.01,0-.02-.01-.04-.01Z"/><path class="cls-1" d="M2.54,3.57s-.08-.03-.09-.07c0-.05.02-.1.07-.1l1.85-.34s.1.02.1.07c0,.05-.02.1-.07.1l-1.85.34s-.01,0-.02,0Z"/><path class="cls-1" d="M2.54,3.6c-.06,0-.11-.04-.12-.1-.01-.07.03-.13.1-.14l1.85-.34c.07-.01.13.03.14.1.01.07-.03.13-.1.14l-1.85.34s-.02,0-.02,0ZM4.39,3.08s0,0-.01,0l-1.85.34s-.05.04-.04.07c0,.03.03.05.07.04l1.85-.34s.05-.04.04-.07c0-.03-.03-.05-.06-.05Z"/></g></svg>