<?xml version="1.0" encoding="UTF-8"?><svg id="Layer_2" xmlns="http://www.w3.org/2000/svg" viewBox="0 0 5.84 6.69"><defs><style>.cls-1{fill:#fff;stroke-width:0px;}</style></defs><g id="Object"><path class="cls-1" d="M2.55,5.06C1.16,5.06.03,3.93.03,2.55S1.16.03,2.55.03s2.51,1.13,2.51,2.51-1.13,2.51-2.51,2.51ZM2.55.21C1.26.21.21,1.26.21,2.55s1.05,2.33,2.33,2.33,2.33-1.05,2.33-2.33S3.84.21,2.55.21Z"/><path class="cls-1" d="M2.55,5.1c-1.41,0-2.55-1.14-2.55-2.55S1.14,0,2.55,0s2.55,1.14,2.55,2.55-1.14,2.55-2.55,2.55ZM2.55.07C1.18.07.07,1.18.07,2.55s1.11,2.48,2.48,2.48,2.48-1.11,2.48-2.48S3.92.07,2.55.07ZM2.55,4.92C1.24,4.92.18,3.85.18,2.55S1.24.18,2.55.18s2.37,1.06,2.37,2.37-1.06,2.37-2.37,2.37ZM2.55.25C1.28.25.25,1.28.25,2.55s1.03,2.3,2.3,2.3,2.3-1.03,2.3-2.3S3.82.25,2.55.25Z"/><path class="cls-1" d="M5.71,6.66s-.05-.01-.07-.03l-1.75-2.06s-.03-.09.01-.13c.04-.03.09-.03.13.01l1.75,2.06s.03.09-.01.13c-.02.01-.04.02-.06.02Z"/><path class="cls-1" d="M5.71,6.69s-.07-.02-.09-.04l-1.75-2.06c-.04-.05-.04-.13.01-.17.05-.04.13-.04.17.01l1.75,2.06c.04.05.04.13-.01.17-.02.02-.05.03-.08.03ZM3.97,4.46s-.03,0-.04.01c-.02.02-.03.06,0,.08l1.75,2.06s.06.03.08,0c.02-.02.03-.06,0-.08l-1.75-2.06s-.03-.02-.04-.02Z"/></g></svg>